<?xml version="1.0" encoding="UTF-8"?>
<svg id="Calque_2" data-name="Calque 2" xmlns="http://www.w3.org/2000/svg" xmlns:xlink="http://www.w3.org/1999/xlink" viewBox="0 0 300 291.3">
  <defs>
    <style>
      .cls-1 {
        fill: url(#Dégradé_sans_nom_7);
      }
    </style>
    <linearGradient id="Dégradé_sans_nom_7" data-name="Dégradé sans nom 7" x1="0" y1="145.65" x2="300" y2="145.65" gradientUnits="userSpaceOnUse">
      <stop offset="0" stop-color="#ff4c00"/>
      <stop offset="1" stop-color="#fea855"/>
    </linearGradient>
  </defs>
  <g id="Calque_1-2" data-name="Calque 1">
    <path class="cls-1" d="m281.91,225.27l18.09-101.17-52.1-88.97L150,0,52.1,35.14,0,124.1v167.2h202.1l79.81-66.03Zm-174.29,41.17l-64.93-54.48-14.72-83.47,42.38-73.41,79.65-28.99,79.65,28.99,42.38,73.41-14.72,83.47-64.93,54.48h-84.77Zm69.65-143.53c0-7.85,6.49-14.21,14.5-14.21s14.5,6.36,14.5,14.21-6.49,14.21-14.5,14.21-14.5-6.36-14.5-14.21Zm29.21,48.99c2.6,2.33,3.03,6.79.65,9.76-.87.85-19.04,22.69-52.8,22.69s-52.15-21.85-52.8-22.69c-2.38-2.97-1.95-7.21,1.08-9.76,3.03-2.33,7.36-1.91,9.96,1.06.65.64,15.15,17.6,41.98,17.6s41.77-17.39,41.98-17.6c2.38-2.97,6.93-3.39,9.96-1.06Zm-104.09-48.99c0-7.85,6.5-14.21,14.5-14.21s14.5,6.36,14.5,14.21-6.49,14.21-14.5,14.21-14.5-6.36-14.5-14.21Z"/>
  </g>
</svg>